[center][img]http://img809.imageshack.us/img809/5136/arthurmovi.jpg[/img]



[img]http://leetleech.org/images/48874973695367351744.png[/img]


Format                           : AVI
Format/Info                      : Audio Video Interleave
File size                        : 1.23 GiB
Duration                         : 1h 46mn
Overall bit rate                 : 1 658 Kbps
Writing library                  : VirtualDub build 32839/release

Video
ID                               : 0
Format                           : MPEG-4 Visual
Format profile                   : Advanced Simple@L5
Format settings, BVOP            : 2
Format settings, QPel            : No
Format settings, GMC             : No warppoints
Format settings, Matrix          : Default (H.263)
Muxing mode                      : Packed bitstream
Codec ID                         : XVID
Codec ID/Hint                    : XviD
Duration                         : 1h 46mn
Bit rate                         : 1 520 Kbps
Width                            : 720 pixels
Height                           : 364 pixels
Display aspect ratio             : 1.978
Frame rate                       : 25.000 fps
Color space                      : YUV
Chroma subsampling               : 4:2:0
Bit depth                        : 8 bits
Scan type                        : Progressive
Compression mode                 : Lossy
Bits/(Pixel*Frame)               : 0.232
Stream size                      : 1.13 GiB (92%)
Writing library                  : XviD 63

Audio
ID                               : 1
Format                           : MPEG Audio
Format version                   : Version 2
Format profile                   : Layer 3
Mode                             : Joint stereo
Mode extension                   : MS Stereo
Codec ID                         : 55
Codec ID/Hint                    : MP3
Duration                         : 1h 46mn
Bit rate mode                    : Constant
Bit rate                         : 128 Kbps
Channel(s)                       : 2 channels
Sampling rate                    : 24.0 KHz
Compression mode                 : Lossy
Stream size                      : 97.2 MiB (8%)
Alignment                        : Split accross interleaves
Interleave, duration             : 40 ms (1.00 video frame)
Interleave, preload duration     : 500 ms
Writing library                  : LAME3.98r
Encoding settings                : -m j -V 4 -q 2 -lowpass 12 -b 128




[url]http://www.imdb.com/title/tt1334512/[/url]




[IMG]http://leetleech.org/images/89524873606771859129.png[/IMG]



Users: 5.3/10 (3,349 votes) 65 reviews | Critics: 115 reviews Metascore: 36/100 (based on 37 reviews from Metacritic.com)

A drunken playboy stands to lose a wealthy inheritance when he falls for a woman his family doesn't like.
Director:
Jason Winer
Writers:
Peter Baynham (screenplay), Steve Gordon (story)
Stars:
Russell Brand, Helen Mirren and Jennifer Garner



[img]http://leetleech.org/images/95521316153253938506.png[/img]




[img]http://img39.imageshack.us/img39/2228/vlcsnap2011051912h25m37.png[/img]

[img]http://img696.imageshack.us/img696/892/vlcsnap2011051912h24m48.png[/img]

[img]http://img204.imageshack.us/img204/1220/vlcsnap2011051912h24m58.png[/img]



Source Used 


VIDEO: .......... FLOPPYDiSK (IMAGiNE) ...........Thanks 

AUDIO: .......... IMAGiNE ...........Thanks



Check out the sample 1st ...slight scroll but nothing too much to make it annoying ......Respect to FLOPPY n IMAGiNE for getting this source out .......Slight saturation change ,conrast and levels filters and slightest smoother 

Enjoy ......... and moaners you were told to check sample so shut it but you cant read can ya


Greetz to IMAGiNE,Flawl3ss,DiLLoN,BDK,NOiR,TOXiCiNK,THC,Ez,Rx,Boobyblue,TaRiQ786,LKRG,CrEwSaDe





[img]http://img411.imageshack.us/img411/6898/sig1n.jpg[/img]




